<?xml version="1.0" standalone="no"?>
<!DOCTYPE svg PUBLIC "-//W3C//DTD SVG 20010904//EN"
 "http://www.w3.org/TR/2001/REC-SVG-20010904/DTD/svg10.dtd">
<svg version="1.0" xmlns="http://www.w3.org/2000/svg"
 width="96.000000pt" height="96.000000pt" viewBox="0 0 96.000000 96.000000"
 preserveAspectRatio="xMidYMid meet">
<metadata>
Created by potrace 1.11, written by Peter Selinger 2001-2013
</metadata>
<g transform="translate(0.000000,96.000000) scale(0.100000,-0.100000)"
fill="#000000" stroke="none">
<path d="M44 742 c-21 -3 -21 -6 -21 -253 0 -137 2 -249 4 -249 3 0 35 17 71
39 37 21 83 48 103 59 33 19 352 203 594 344 55 32 98 58 95 59 -16 2 -829 3
-846 1z m241 -56 c-11 -8 -15 -33 -16 -105 0 -51 3 -97 9 -103 5 -5 27 -8 48
-6 29 2 42 9 52 28 12 25 13 24 10 -10 l-3 -35 -97 0 c-84 -1 -94 1 -77 13 17
11 19 26 19 114 0 95 -1 100 -22 106 -21 6 -21 7 7 12 17 3 43 4 58 2 23 -4
25 -6 12 -16z"/>
<path d="M685 579 c-132 -76 -262 -152 -290 -168 -27 -16 -111 -64 -185 -107
-74 -42 -139 -81 -144 -85 -5 -5 187 -8 427 -8 l437 0 0 22 c2 79 0 480 -2
482 -2 1 -111 -60 -243 -136z m131 -87 c1 -12 -3 -25 -7 -28 -5 -3 -9 2 -9 10
0 19 -30 36 -56 32 -17 -3 -19 -13 -22 -110 -3 -103 -2 -107 20 -116 18 -7 7
-9 -42 -9 -49 0 -59 3 -42 9 24 10 24 9 24 129 0 53 -4 86 -12 91 -20 12 -61
-2 -70 -24 -8 -18 -9 -17 -9 10 l-1 31 113 -1 c109 -1 112 -2 113 -24z"/>
</g>
</svg>
